<?xml version="1.0" encoding="utf-8"?><svg xmlns="http://www.w3.org/2000/svg" xmlns:xlink="http://www.w3.org/1999/xlink" width="1912" height="814" preserveAspectRatio="xMidYMid" viewBox="0 0 1912 814" style="z-index:1;shape-rendering:crispedges;margin-right:-1.98864px;display:block;background-repeat-y:initial;background-repeat-x:initial;background-color:rgb(255, 255, 255);animation-play-state:paused" ><g transform="" style="animation-play-state:paused" ><linearGradient id="lg-0.5676646304527042" x1="0" x2="1" y1="0" y2="0" style="animation-play-state:paused" ><stop stop-color="#ff00ff" offset="0" style="animation-play-state:paused" ></stop>

  
<stop stop-color="#00ffff" offset="1" style="animation-play-state:paused" ></stop></linearGradient>
<path fill="url(#lg-0.5676646304527042)" opacity="0.4" d="M 0 0 L 0 731.946 Q 191.2 625.101 382.4 601.086 T 764.8 639.684 T 1147.2 477.282 T 1529.6 341.569 T 1912 360.556 L 1912 0 Z" style="opacity:0.4;animation-play-state:paused" ></path>
<path fill="url(#lg-0.5676646304527042)" opacity="0.4" d="M 0 0 L 0 745.081 Q 191.2 709.083 382.4 685.179 T 764.8 572.123 T 1147.2 488.383 T 1529.6 428.195 T 1912 339.908 L 1912 0 Z" style="opacity:0.4;animation-play-state:paused" ></path>
<path fill="url(#lg-0.5676646304527042)" opacity="0.4" d="M 0 0 L 0 767.26 Q 191.2 734.068 382.4 698.387 T 764.8 558.507 T 1147.2 529.085 T 1529.6 434.113 T 1912 321.138 L 1912 0 Z" style="opacity:0.4;animation-play-state:paused" ></path>
<path fill="url(#lg-0.5676646304527042)" opacity="0.4" d="M 0 0 L 0 742.097 Q 191.2 662.711 382.4 625.149 T 764.8 627.399 T 1147.2 468.839 T 1529.6 447.551 T 1912 322.121 L 1912 0 Z" style="opacity:0.4;animation-play-state:paused" ></path>
<path fill="url(#lg-0.5676646304527042)" opacity="0.4" d="M 0 0 L 0 734.224 Q 191.2 679.735 382.4 636.986 T 764.8 614.442 T 1147.2 481.969 T 1529.6 390.13 T 1912 329.356 L 1912 0 Z" style="opacity:0.4;animation-play-state:paused" ></path></g></svg>